<svg width="160" height="160" viewBox="0 0 160 160" fill="none" xmlns="http://www.w3.org/2000/svg">
<g filter="url(#filter0_f_124_362)">
<circle cx="80" cy="80" r="20" fill="#0054FF"/>
</g>
<g filter="url(#filter1_d_124_362)">
<rect x="48.0001" y="48.002" width="64" height="64" rx="16" fill="#7495D9" fill-opacity="0.08" shape-rendering="crispEdges"/>
<rect x="48.5001" y="48.502" width="63" height="63" rx="15.5" stroke="url(#paint0_linear_124_362)" stroke-opacity="0.3" shape-rendering="crispEdges"/>
</g>
<mask id="mask0_124_362" style="mask-type:alpha" maskUnits="userSpaceOnUse" x="62" y="62" width="36" height="36">
<path fill-rule="evenodd" clip-rule="evenodd" d="M80 98C89.9411 98 98 89.9411 98 80C98 79.9499 97.9998 79.8999 97.9994 79.85C97.9336 86.2703 92.7086 91.4547 86.2727 91.4547C79.7959 91.4547 74.5455 86.2042 74.5455 79.7274C74.5455 73.2506 79.7959 68.0001 86.2727 68.0001C92.3663 68.0001 97.3743 72.6476 97.9457 78.5913C97.2271 69.3086 89.4671 62 80 62C70.0589 62 62 70.0589 62 80C62 89.9411 70.0589 98 80 98Z" fill="#D9D9D9"/>
</mask>
<g mask="url(#mask0_124_362)">
<path fill-rule="evenodd" clip-rule="evenodd" d="M42.9091 87.3635L85.1818 45.0908L85.9532 45.8622L43.6805 88.1349L42.9091 87.3635ZM44.4517 88.9066L86.7244 46.6339L87.4958 47.4052L45.2231 89.678L44.4517 88.9066ZM88.2673 48.176L45.9946 90.4487L46.766 91.2201L89.0387 48.9474L88.2673 48.176ZM47.5374 91.9919L89.8101 49.7192L90.5815 50.4906L48.3087 92.7633L47.5374 91.9919ZM92.8955 52.8048L50.6228 95.0776L51.3942 95.849L93.6669 53.5762L92.8955 52.8048ZM53.7084 98.1626L95.9812 55.8899L96.7525 56.6613L54.4798 98.934L53.7084 98.1626ZM99.0667 58.976L56.794 101.249L57.5654 102.02L99.8381 59.7474L99.0667 58.976ZM59.8796 104.334L102.152 62.0616L102.924 62.833L60.6509 105.106L59.8796 104.334ZM105.238 65.1467L62.965 107.419L63.7364 108.191L106.009 65.9181L105.238 65.1467ZM66.0507 110.505L108.323 68.2324L109.095 69.0038L66.8221 111.277L66.0507 110.505ZM111.409 71.3183L69.1362 113.591L69.9076 114.362L112.18 72.0897L111.409 71.3183ZM72.2217 116.676L114.494 74.4035L115.266 75.1749L72.9931 117.448L72.2217 116.676ZM91.3528 51.2619L49.0801 93.5346L49.8515 94.306L92.1242 52.0333L91.3528 51.2619ZM52.1655 96.6204L94.4383 54.3477L95.2097 55.1191L52.9369 97.3918L52.1655 96.6204ZM97.524 57.433L55.2512 99.7058L56.0226 100.477L98.2954 58.2044L97.524 57.433ZM58.3367 102.791L100.609 60.5187L101.381 61.2901L59.1081 103.563L58.3367 102.791ZM103.695 63.6037L61.4223 105.876L62.1937 106.648L104.466 64.3751L103.695 63.6037ZM64.5079 108.963L106.781 66.6898L107.552 67.4612L65.2792 109.734L64.5079 108.963ZM109.866 69.7755L67.5934 112.048L68.3648 112.82L110.638 70.5468L109.866 69.7755ZM70.6789 115.133L112.952 72.8606L113.723 73.632L71.4503 115.905L70.6789 115.133ZM116.037 75.9462L73.7646 118.219L74.536 118.99L116.809 76.7176L116.037 75.9462Z" fill="url(#paint1_linear_124_362)"/>
</g>
<g opacity="0.6">
<mask id="mask1_124_362" style="mask-type:alpha" maskUnits="userSpaceOnUse" x="62" y="62" width="36" height="36">
<path fill-rule="evenodd" clip-rule="evenodd" d="M80 98C89.9411 98 98 89.9411 98 80C98 70.0589 89.9411 62 80 62C70.5323 62 62.7719 69.3095 62.0542 78.5931C62.6247 72.6485 67.6332 68.0001 73.7273 68.0001C80.2041 68.0001 85.4546 73.2506 85.4546 79.7274C85.4546 86.2042 80.2041 91.4547 73.7273 91.4547C67.2908 91.4547 62.0654 86.2694 62.0006 79.8482C62.0002 79.8988 62 79.9494 62 80C62 89.9411 70.0589 98 80 98Z" fill="#D9D9D9"/>
</mask>
<g mask="url(#mask1_124_362)">
<path fill-rule="evenodd" clip-rule="evenodd" d="M43.0666 87.3635L85.3393 45.0908L86.1107 45.8622L43.838 88.1349L43.0666 87.3635ZM44.6092 88.9066L86.8819 46.6339L87.6533 47.4052L45.3806 89.678L44.6092 88.9066ZM88.4248 48.176L46.152 90.4487L46.9234 91.2201L89.1962 48.9474L88.4248 48.176ZM47.6948 91.9919L89.9676 49.7192L90.739 50.4906L48.4662 92.7633L47.6948 91.9919ZM93.053 52.8048L50.7803 95.0776L51.5517 95.849L93.8244 53.5762L93.053 52.8048ZM53.8659 98.1626L96.1386 55.8899L96.91 56.6613L54.6373 98.934L53.8659 98.1626ZM99.2242 58.976L56.9514 101.249L57.7228 102.02L99.9956 59.7474L99.2242 58.976ZM60.037 104.334L102.31 62.0616L103.081 62.833L60.8084 105.106L60.037 104.334ZM105.395 65.1467L63.1225 107.419L63.8939 108.191L106.167 65.9181L105.395 65.1467ZM66.2082 110.505L108.481 68.2324L109.252 69.0038L66.9796 111.277L66.2082 110.505ZM111.566 71.3183L69.2936 113.591L70.065 114.362L112.338 72.0897L111.566 71.3183ZM72.3792 116.676L114.652 74.4035L115.423 75.1749L73.1506 117.448L72.3792 116.676ZM91.5103 51.2619L49.2376 93.5346L50.0089 94.306L92.2817 52.0333L91.5103 51.2619ZM52.323 96.6204L94.5958 54.3477L95.3672 55.1191L53.0944 97.3918L52.323 96.6204ZM97.6815 57.433L55.4087 99.7058L56.1801 100.477L98.4528 58.2044L97.6815 57.433ZM58.4942 102.791L100.767 60.5187L101.538 61.2901L59.2655 103.563L58.4942 102.791ZM103.853 63.6037L61.5798 105.876L62.3512 106.648L104.624 64.3751L103.853 63.6037ZM64.6653 108.963L106.938 66.6898L107.709 67.4612L65.4367 109.734L64.6653 108.963ZM110.024 69.7755L67.7509 112.048L68.5223 112.82L110.795 70.5468L110.024 69.7755ZM70.8364 115.133L113.109 72.8606L113.88 73.632L71.6078 115.905L70.8364 115.133ZM116.195 75.9462L73.9221 118.219L74.6935 118.99L116.966 76.7176L116.195 75.9462Z" fill="url(#paint2_linear_124_362)"/>
</g>
</g>
<defs>
<filter id="filter0_f_124_362" x="0" y="0" width="160" height="160" filterUnits="userSpaceOnUse" color-interpolation-filters="sRGB">
<feFlood flood-opacity="0" result="BackgroundImageFix"/>
<feBlend mode="normal" in="SourceGraphic" in2="BackgroundImageFix" result="shape"/>
<feGaussianBlur stdDeviation="30" result="effect1_foregroundBlur_124_362"/>
</filter>
<filter id="filter1_d_124_362" x="33.0001" y="33.002" width="94" height="94" filterUnits="userSpaceOnUse" color-interpolation-filters="sRGB">
<feFlood flood-opacity="0" result="BackgroundImageFix"/>
<feColorMatrix in="SourceAlpha" type="matrix" values="0 0 0 0 0 0 0 0 0 0 0 0 0 0 0 0 0 0 127 0" result="hardAlpha"/>
<feOffset/>
<feGaussianBlur stdDeviation="7.5"/>
<feComposite in2="hardAlpha" operator="out"/>
<feColorMatrix type="matrix" values="0 0 0 0 0 0 0 0 0 0 0 0 0 0 0 0 0 0 0.4 0"/>
<feBlend mode="normal" in2="BackgroundImageFix" result="effect1_dropShadow_124_362"/>
<feBlend mode="normal" in="SourceGraphic" in2="effect1_dropShadow_124_362" result="shape"/>
</filter>
<linearGradient id="paint0_linear_124_362" x1="80.0001" y1="48.002" x2="80.0001" y2="112.002" gradientUnits="userSpaceOnUse">
<stop stop-color="#749FF6"/>
<stop offset="0.430493" stop-color="#153984"/>
</linearGradient>
<linearGradient id="paint1_linear_124_362" x1="79.859" y1="45.0908" x2="79.859" y2="118.99" gradientUnits="userSpaceOnUse">
<stop stop-color="#84ACFF"/>
<stop offset="1" stop-color="#3D79F5" stop-opacity="0.12"/>
</linearGradient>
<linearGradient id="paint2_linear_124_362" x1="80.0165" y1="45.0908" x2="80.0165" y2="118.99" gradientUnits="userSpaceOnUse">
<stop stop-color="#84ACFF"/>
<stop offset="1" stop-color="#3D79F5" stop-opacity="0.12"/>
</linearGradient>
</defs>
</svg>
