<svg width="160" height="160" viewBox="0 0 160 160" fill="none" xmlns="http://www.w3.org/2000/svg">
<g filter="url(#filter0_f_124_428)">
<circle cx="80" cy="80" r="20" fill="#0054FF"/>
</g>
<g filter="url(#filter1_d_124_428)">
<rect x="47.9277" y="48.0693" width="64" height="64" rx="16" transform="rotate(-0.129846 47.9277 48.0693)" fill="#7495D9" fill-opacity="0.08" shape-rendering="crispEdges"/>
<rect x="48.4289" y="48.5682" width="63" height="63" rx="15.5" transform="rotate(-0.129846 48.4289 48.5682)" stroke="url(#paint0_linear_124_428)" stroke-opacity="0.3" shape-rendering="crispEdges"/>
</g>
<mask id="mask0_124_428" style="mask-type:alpha" maskUnits="userSpaceOnUse" x="57" y="65" width="46" height="30">
<path fill-rule="evenodd" clip-rule="evenodd" d="M76.2428 67.2691C73.8996 64.9259 70.1006 64.9259 67.7575 67.2691L59.2722 75.7544C56.929 78.0975 56.929 81.8965 59.2722 84.2396L67.7575 92.7249C70.1006 95.0681 73.8996 95.0681 76.2428 92.7249L80.0001 88.9676L83.7575 92.7249C86.1006 95.0681 89.8996 95.0681 92.2428 92.7249L100.728 84.2396C103.071 81.8965 103.071 78.0975 100.728 75.7544L92.2428 67.2691C89.8996 64.9259 86.1006 64.9259 83.7575 67.2691L80.0001 71.0264L76.2428 67.2691ZM80.0001 71.0264L75.2722 75.7544C72.929 78.0975 72.929 81.8965 75.2722 84.2396L80.0001 88.9676L84.728 84.2396C87.0712 81.8965 87.0712 78.0975 84.728 75.7544L80.0001 71.0264Z" fill="#D9D9D9"/>
</mask>
<g mask="url(#mask0_124_428)">
<path fill-rule="evenodd" clip-rule="evenodd" d="M42.9387 85.3899L85.2114 43.1172L85.9828 43.8886L43.7101 86.1613L42.9387 85.3899ZM44.4813 86.9329L86.754 44.6602L87.5254 45.4316L45.2527 87.7043L44.4813 86.9329ZM88.2969 46.2024L46.0242 88.4751L46.7956 89.2465L89.0683 46.9738L88.2969 46.2024ZM47.567 90.0183L89.8397 47.7456L90.6111 48.517L48.3384 90.7897L47.567 90.0183ZM92.9252 50.8312L50.6524 93.1039L51.4238 93.8753L93.6966 51.6026L92.9252 50.8312ZM53.7381 96.189L96.0108 53.9162L96.7822 54.6876L54.5094 96.9604L53.7381 96.189ZM99.0963 57.0023L56.8236 99.2751L57.595 100.046L99.8677 57.7737L99.0963 57.0023ZM59.9092 102.361L102.182 60.088L102.953 60.8593L60.6806 103.132L59.9092 102.361ZM105.267 63.1731L62.9947 105.446L63.766 106.217L106.039 63.9445L105.267 63.1731ZM66.0803 108.532L108.353 66.2588L109.124 67.0302L66.8517 109.303L66.0803 108.532ZM111.439 69.3447L69.1658 111.617L69.9372 112.389L112.21 70.1161L111.439 69.3447ZM72.2515 114.703L114.524 72.4299L115.296 73.2013L73.0229 115.474L72.2515 114.703ZM91.3824 49.2882L49.1097 91.561L49.8811 92.3323L92.1538 50.0596L91.3824 49.2882ZM52.1952 94.6468L94.4679 52.3741L95.2393 53.1455L52.9666 95.4182L52.1952 94.6468ZM97.5536 55.4594L55.2809 97.7321L56.0523 98.5035L98.325 56.2308L97.5536 55.4594ZM58.3663 100.818L100.639 58.5451L101.41 59.3165L59.1377 101.589L58.3663 100.818ZM103.725 61.6301L61.4519 103.903L62.2233 104.674L104.496 62.4015L103.725 61.6301ZM64.5375 106.989L106.81 64.7162L107.582 65.4875L65.3089 107.76L64.5375 106.989ZM109.896 67.8018L67.6231 110.075L68.3944 110.846L110.667 68.5732L109.896 67.8018ZM70.7085 113.16L112.981 70.8869L113.753 71.6583L71.4799 113.931L70.7085 113.16ZM116.067 73.9726L73.7942 116.245L74.5656 117.017L116.838 74.744L116.067 73.9726Z" fill="url(#paint1_linear_124_428)"/>
</g>
<defs>
<filter id="filter0_f_124_428" x="0" y="0" width="160" height="160" filterUnits="userSpaceOnUse" color-interpolation-filters="sRGB">
<feFlood flood-opacity="0" result="BackgroundImageFix"/>
<feBlend mode="normal" in="SourceGraphic" in2="BackgroundImageFix" result="shape"/>
<feGaussianBlur stdDeviation="30" result="effect1_foregroundBlur_124_428"/>
</filter>
<filter id="filter1_d_124_428" x="32.9639" y="32.9609" width="94.0724" height="94.0723" filterUnits="userSpaceOnUse" color-interpolation-filters="sRGB">
<feFlood flood-opacity="0" result="BackgroundImageFix"/>
<feColorMatrix in="SourceAlpha" type="matrix" values="0 0 0 0 0 0 0 0 0 0 0 0 0 0 0 0 0 0 127 0" result="hardAlpha"/>
<feOffset/>
<feGaussianBlur stdDeviation="7.5"/>
<feComposite in2="hardAlpha" operator="out"/>
<feColorMatrix type="matrix" values="0 0 0 0 0 0 0 0 0 0 0 0 0 0 0 0 0 0 0.4 0"/>
<feBlend mode="normal" in2="BackgroundImageFix" result="effect1_dropShadow_124_428"/>
<feBlend mode="normal" in="SourceGraphic" in2="effect1_dropShadow_124_428" result="shape"/>
</filter>
<linearGradient id="paint0_linear_124_428" x1="79.9277" y1="48.0693" x2="79.9277" y2="112.069" gradientUnits="userSpaceOnUse">
<stop stop-color="#749FF6"/>
<stop offset="0.430493" stop-color="#153984"/>
</linearGradient>
<linearGradient id="paint1_linear_124_428" x1="79.8886" y1="43.1172" x2="79.8886" y2="117.017" gradientUnits="userSpaceOnUse">
<stop stop-color="#84ACFF"/>
<stop offset="1" stop-color="#3D79F5" stop-opacity="0.12"/>
</linearGradient>
</defs>
</svg>
